<svg width="268" height="111" xmlns="http://www.w3.org/2000/svg" version="1.2" baseProfile="tiny">
 <title>Markus</title>
\n
 <g>
  <g id="svg_2">
   <path fill="#263238" fill-rule="evenodd" d="m254,96l-0.5,1l-1.5,-1l2,0" id="svg_3"/>
  </g>
  <g id="svg_4">
   <path fill="#263238" fill-rule="evenodd" d="m260,91l-0.5,1l-0.5,-1l1,0" id="svg_5"/>
  </g>
  <g id="svg_6">
   <path fill="#263238" fill-rule="evenodd" d="m259,90l-0.375,-1l-0.375,-2.75l3.75,-1.25l0,0.5l0.5,0.5l2.5,0l-1,1.5l-0.25,1.25l-1.25,0.25l-0.5,-0.5l1,-1l-0.5,-0.5l-1.25,0.25l-1.25,3.75l0,-0.5l-0.5,-0.5l-0.5,0" id="svg_7"/>
  </g>
  <g id="svg_8">
   <path fill="#263238" fill-rule="evenodd" d="m263,82l0,-0.5l0.5,-0.5l0.5,0l0,1l-1,0" id="svg_9"/>
  </g>
  <g id="svg_10">
   <path fill="#263238" fill-rule="evenodd" d="m256,76l-0.5,1l-0.5,-1l1,0" id="svg_11"/>
  </g>
  <g id="svg_12">
   <path fill="#263238" fill-rule="evenodd" d="m264,77l0,-1l-1,0l0,1l1,0m1,1l0,-1l-1,0l0,1l1,0m0,2l0,-1l-1,0l0,1l1,0m2,2l0,-1l-1,0l0,1l1,0m-5,3l0,-2.5l0.5,-0.5l0.5,0l0.5,1l0.5,-1l1,-0.5l-1,-0.5l-0.25,-0.75l-1.5,-0.5l-0.25,-1.25l-0.5,-0.5l-1,1l-1,-1l-1.25,-0.25l-0.25,-1.25l1.5,-1.5l1,1l1.5,-0.5l2,0l1.75,0.75l0.875,2.75l0.875,2l0.25,1.75l-1.25,0.25l-0.5,0.5l1,1l-2,1.5l0,-1.5l-0.5,-0.5l-1,1l-1.5,0" id="svg_13"/>
  </g>
  <g id="svg_14">
   <path fill="#263238" fill-rule="evenodd" d="m262,75l-1,0l0,-1l1,0l0,1" id="svg_15"/>
  </g>
  <g id="svg_16">
   <path fill="#263238" fill-rule="evenodd" d="m255,73l0.25,-0.75l1.75,0.125l2.5,0.625l0.5,0.5l-1.5,1.5l-1,-1l-0.5,0.5l-1,1.5l0,-2.5l-0.5,-0.5l-0.5,0" id="svg_17"/>
  </g>
  <g id="svg_18">
   <path fill="#263238" fill-rule="evenodd" d="m252,72l-0.5,0l-1,1l-0.5,-0.5l1,-2.5l0,0.5l0.5,0.5l0.5,0l0,1" id="svg_19"/>
  </g>
  <g id="svg_20">
   <path fill="#263238" fill-rule="evenodd" d="m255,76l-0.75,-0.25l-0.25,-1.25l-2,-2.5l1,-0.5l-1,-0.5l0,-0.5l-0.5,-0.5l-0.5,0l0,-1.5l0.5,-0.5l2,2l1,-1l0.5,0.5l-0.5,1.5l0.5,2l0,3" id="svg_21"/>
  </g>
  <g id="svg_22">
   <path fill="#263238" fill-rule="evenodd" d="m255.5,69l-1.5,-1.5l0.5,-0.5l1.25,0.25l0.25,1.25l-0.5,0.5" id="svg_23"/>
  </g>
  <g id="svg_24">
   <path fill="#263238" fill-rule="evenodd" d="m253,68l-1,0l0,-1l1,0l0,1" id="svg_25"/>
  </g>
  <g id="svg_26">
   <path fill="#263238" fill-rule="evenodd" d="m258,67l-1,0l0,-1l1,0l0,1" id="svg_27"/>
  </g>
  <g id="svg_28">
   <path fill="#263238" fill-rule="evenodd" d="m257,65l-1,0l0,-1l1,0l0,1" id="svg_29"/>
  </g>
  <g id="svg_30">
   <path fill="#263238" fill-rule="evenodd" d="m261,64l-1,0l0,-1l1,0l0,1" id="svg_31"/>
  </g>
  <g id="svg_32">
   <path fill="#263238" fill-rule="evenodd" d="m249,97l0,-1l-1,0l0,1l1,0m-7,5l0,-1l-1,0l0,1l1,0m-6.5,2l0.5,-1l-1.5,0l-0.5,1l1.5,0m-6.5,1l0,-1l-1,0l0,1l1,0m27,-13l0,-1l-1,0l0,1l1,0m-4,4l-0.75,0.25l-0.25,1.25l-1.5,1.5l-1,0l-3,3l-6,1l-2,2l-3,1l-1,-1l-1,1l-4,1l-2,-2l-2.25,-0.25l0,-2.5l1.75,-0.75l6,0l4,-1.125l5,-2.75l3,-1.25l1.75,-0.125l0.5,1.5l1.25,0.25l0.5,-0.5l-1,-1l0,-1l3.5,-3.5l1,1l1,-1l1,1l0.5,-0.5l0.25,-2.25l1.25,-0.25l1,-1l1,1l1.5,0l0,1l-0.75,0.25l-0.5,2.5l-1.25,0.25l-2.5,2l-1.5,-2l-0.5,0.5l0,1.5m-2,0l0,-1l-1,0l0,1l1,0" id="svg_33"/>
  </g>
  <g id="svg_34">
   <path fill="#263238" fill-rule="evenodd" d="m193,95l-1,-0.5l0,-2.5l1,0.5l0,2.5" id="svg_35"/>
  </g>
  <g id="svg_36">
   <path fill="#263238" fill-rule="evenodd" d="m196,92l-1,0l0,-1l1,0l0,1" id="svg_37"/>
  </g>
  <g id="svg_38">
   <path fill="#263238" fill-rule="evenodd" d="m190.5,94l-1.5,-1.5l1.5,-1.5l0.5,0.5l0,2l-0.5,0.5" id="svg_39"/>
  </g>
  <g id="svg_40">
   <path fill="#263238" fill-rule="evenodd" d="m193.5,92l-1.5,-1.5l0.5,-0.5l1,0l1,-1l0.5,0.5l0,1l-1.5,1.5" id="svg_41"/>
  </g>
  <g id="svg_42">
   <path fill="#263238" fill-rule="evenodd" d="m190,90l-1,0l0,-1l1,0l0,1" id="svg_43"/>
  </g>
  <g id="svg_44">
   <path fill="#263238" fill-rule="evenodd" d="m193.5,89l-0.25,-1.25l1.25,-0.75l0.5,0.5l-1.5,1.5" id="svg_45"/>
  </g>
  <g id="svg_46">
   <path fill="#263238" fill-rule="evenodd" d="m205.75,89.75l-1.5,0l-0.25,-1.25l-1,-1l1.5,-1.5l1.5,1.5l-0.25,2.25" id="svg_47"/>
  </g>
  <g id="svg_48">
   <path fill="#263238" fill-rule="evenodd" d="m190.5,87l-0.25,-1.25l2.25,-0.75l0.5,0l-0.5,1l-1,0l-1,1" id="svg_49"/>
  </g>
  <g id="svg_50">
   <path fill="#263238" fill-rule="evenodd" d="m196,86l-1,-0.5l0,-2.5l1,0.5l0,2.5" id="svg_51"/>
  </g>
  <g id="svg_52">
   <path fill="#263238" fill-rule="evenodd" d="m208,84l-1,-1l0,-1l1,0.5l0,1.5" id="svg_53"/>
  </g>
  <g id="svg_54">
   <path fill="#263238" fill-rule="evenodd" d="m202,83l-1,0l0,-1l1,0l0,1" id="svg_55"/>
  </g>
  <g id="svg_56">
   <path fill="#263238" fill-rule="evenodd" d="m193.5,85l-3,-1l-0.5,-0.5l1.5,-1.5l2.25,0.25l0.25,2.25l-0.5,0.5" id="svg_57"/>
  </g>
  <g id="svg_58">
   <path fill="#263238" fill-rule="evenodd" d="m206.5,82l-1.5,0l0.5,-1l1.5,0l-0.5,1" id="svg_59"/>
  </g>
  <g id="svg_60">
   <path fill="#263238" fill-rule="evenodd" d="m203.5,86l-1,0l-0.5,-0.5l1,-1l0,-3l0.5,-0.5l2.5,2.5l-2.5,2.5" id="svg_61"/>
  </g>
  <g id="svg_62">
   <path fill="#263238" fill-rule="evenodd" d="m208,81l-1,0l0,-1l1,0l0,1" id="svg_63"/>
  </g>
  <g id="svg_64">
   <path fill="#263238" fill-rule="evenodd" d="m203,81l-1,0l0,-1l1,0l0,1" id="svg_65"/>
  </g>
  <g id="svg_66">
   <path fill="#263238" fill-rule="evenodd" d="m209,80l-1,0l0,-1l1,0l0,1" id="svg_67"/>
  </g>
  <g id="svg_68">
   <path fill="#263238" fill-rule="evenodd" d="m206,80l-1,0l0,-1l1,0l0,1" id="svg_69"/>
  </g>
  <g id="svg_70">
   <path fill="#263238" fill-rule="evenodd" d="m196.75,81.75l-4.25,-0.75l-0.5,0l0.5,-1l3.5,-0.625l1.5,-0.375l0.5,0.5l-1,1l-0.25,1.25" id="svg_71"/>
  </g>
  <g id="svg_72">
   <path fill="#263238" fill-rule="evenodd" d="m222,79l0,-0.5l0.5,-0.5l0.5,0l0,1l-1,0" id="svg_73"/>
  </g>
  <g id="svg_74">
   <path fill="#263238" fill-rule="evenodd" d="m194.5,79l-2.5,0l0.5,-1l2.5,0l-0.5,1" id="svg_75"/>
  </g>
  <g id="svg_76">
   <path fill="#263238" fill-rule="evenodd" d="m188.5,64l-1.5,0l0.5,-1l1.5,0l-0.5,1" id="svg_77"/>
  </g>
  <g id="svg_78">
   <path fill="#263238" fill-rule="evenodd" d="m190,63l-1,-1l0,-1l1,0.5l0,1.5" id="svg_79"/>
  </g>
  <g id="svg_80">
   <path fill="#263238" fill-rule="evenodd" d="m236.5,64l0.5,-1l-1.5,0l-0.5,1l1.5,0m-1.5,1l0,-1l-1,0l0,1l1,0m3,1l0,-1l-1,0l0,1l1,0m-6,4l0,-1l-1,0l0,1l1,0m4,0l0,-1l-1,0l0,1l1,0m-1,3l0,-1l-1,0l0,1l1,0m-4.5,1l0.5,-1l-1.5,0l-0.5,1l1.5,0m-1.5,2l0,-1l-1,0l0,1l1,0m4,0l0,-1l-1,0l0,1l1,0m-3.25,1.75l0.25,-1.25l-0.5,-0.5l-1.5,1.5l0.5,0.5l1.25,-0.25m-2.75,1.25l0,-1l-1,0l0,1l1,0m-4,0l1,-0.5l-1,-0.5l0.5,-1l0.75,-1.75l1.25,-0.25l1,1l1.5,-1.5l-1,-1l2,-2l2.5,-4.5l0.5,-1.5l1,-1l-1,-1l0.5,-0.5l1,0l1.5,-1.5l0.25,-1.25l2.25,-0.25l1.5,1.5l-0.75,5.5l-1.875,5l-2.375,4.5l-1.5,1.5l-10.25,8.25l-0.5,1.5l-4.25,1.25l-2,2l-1,-1l-0.5,0.5l-0.25,1.25l-1.25,0.25l-1,-1l-1,1l-2,0l-1.5,-1.5l-0.75,-5.375l6.25,-0.125l1,-1l0.5,0.5l0,2l0.5,0.5l1,-1l1,1l0.5,-0.5l-0.25,-1.25l-1.5,-0.5l0,-1.5l1.25,-0.25l1,1l0.5,-0.5l1.25,-3.25l2.75,-1.25l0,1.5l0.5,0.5l0.5,-0.5l0,-1.5m2,1l0,-1l-1,0l0,1l1,0m1,2l0,-1l-1,0l0,1l1,0m-6,1l0,-1l-1,0l0,1l1,0m2.75,0.75l0.25,-1.25l-0.5,-0.5l-1.5,1.5l0.5,0.5l1.25,-0.25m2.25,0.25l0,-1l-1,0l0,1l1,0m-16,3l0,-1l-1,0l0,1l1,0m1.5,1l0.5,-1l-1.5,0l-0.5,1l1.5,0m3.5,0l0,-1l-1,0l0,1l1,0m-5.5,3l1.5,-1.5l-1.5,-1.5l-0.5,0.5l0,2l0.5,0.5m6.5,-2l0,-1l-1,0l0,1l1,0" id="svg_81"/>
  </g>
  <g id="svg_82">
   <path fill="#263238" fill-rule="evenodd" d="m191,59l-1,0l0,-1l1,0l0,1" id="svg_83"/>
  </g>
  <g id="svg_84">
   <path fill="#263238" fill-rule="evenodd" d="m193,58l-1,0l0,-1l1,0l0,1" id="svg_85"/>
  </g>
  <g id="svg_86">
   <path fill="#263238" fill-rule="evenodd" d="m148,95l-1,0l0,-1l1,0l0,1" id="svg_87"/>
  </g>
  <g id="svg_88">
   <path fill="#263238" fill-rule="evenodd" d="m129,93l-1,0l0,-1l1,0l0,1" id="svg_89"/>
  </g>
  <g id="svg_90">
   <path fill="#263238" fill-rule="evenodd" d="m131,92l-1,0l0,-1l1,0l0,1" id="svg_91"/>
  </g>
  <g id="svg_92">
   <path fill="#263238" fill-rule="evenodd" d="m132,91l-1,0l0,-1l1,0l0,1" id="svg_93"/>
  </g>
  <g id="svg_94">
   <path fill="#263238" fill-rule="evenodd" d="m171,90l-1,0l0,-1l1,0l0,1" id="svg_95"/>
  </g>
  <g id="svg_96">
   <path fill="#263238" fill-rule="evenodd" d="m136.5,91l-3.25,-0.25l-0.25,-1.25l-1,-1l0.5,-0.5l4,2l0.5,0l-0.5,1" id="svg_97"/>
  </g>
  <g id="svg_98">
   <path fill="#263238" fill-rule="evenodd" d="m130.75,89.75l-1.25,0.25l-0.5,-0.5l1.5,-1.5l0.5,0.5l-0.25,1.25" id="svg_99"/>
  </g>
  <g id="svg_100">
   <path fill="#263238" fill-rule="evenodd" d="m127,89l-1,0l0,-1l1,0l0,1" id="svg_101"/>
  </g>
  <g id="svg_102">
   <path fill="#263238" fill-rule="evenodd" d="m131.5,87l-1.5,0l0.5,-1l1.5,0l-0.5,1" id="svg_103"/>
  </g>
  <g id="svg_104">
   <path fill="#263238" fill-rule="evenodd" d="m129,86l-1,0l0,-1l1,0l0,1" id="svg_105"/>
  </g>
  <g id="svg_106">
   <path fill="#263238" fill-rule="evenodd" d="m141,85l-0.75,0.25l-0.25,1.25l-1.5,1.5l-1,0l-0.5,-0.5l1,-1l0,-2l1.5,-1.5l1.5,0l0,2" id="svg_107"/>
  </g>
  <g id="svg_108">
   <path fill="#263238" fill-rule="evenodd" d="m138,84l-1,0l0,-1l1,0l0,1" id="svg_109"/>
  </g>
  <g id="svg_110">
   <path fill="#263238" fill-rule="evenodd" d="m135,84l1,0.5l-0.25,2.25l-2.25,0.25l-2,-2l-1,0l-0.5,-0.5l1.5,-1.5l1.5,1l1.5,1l0.5,-1" id="svg_111"/>
  </g>
  <g id="svg_112">
   <path fill="#263238" fill-rule="evenodd" d="m133,84l0,-1.5l0.5,-0.5l0.5,0l0,0.5l0.5,0.5l0.5,0l0,1l-2,0" id="svg_113"/>
  </g>
  <g id="svg_114">
   <path fill="#263238" fill-rule="evenodd" d="m135,82l0.5,0l0.5,-0.5l0,-0.5l1,0.5l-0.25,1.25l-1.75,0.25l0,-1" id="svg_115"/>
  </g>
  <g id="svg_116">
   <path fill="#263238" fill-rule="evenodd" d="m134,82l0,-0.5l0.5,-0.5l0.5,0l0,1l-1,0" id="svg_117"/>
  </g>
  <g id="svg_118">
   <path fill="#263238" fill-rule="evenodd" d="m171,81l-1,0l0,-1l1,0l0,1" id="svg_119"/>
  </g>
  <g id="svg_120">
   <path fill="#263238" fill-rule="evenodd" d="m135,81l0,-0.5l0.5,-0.5l0.5,1l-1,0" id="svg_121"/>
  </g>
  <g id="svg_122">
   <path fill="#263238" fill-rule="evenodd" d="m133,81l-1,-1l0,-1l1,0.5l0,1.5" id="svg_123"/>
  </g>
  <g id="svg_124">
   <path fill="#263238" fill-rule="evenodd" d="m178,78l-1,0l0,-1l1,0l0,1" id="svg_125"/>
  </g>
  <g id="svg_126">
   <path fill="#263238" fill-rule="evenodd" d="m137,77l-0.5,0l-0.5,-0.5l1,-0.5l0,1" id="svg_127"/>
  </g>
  <g id="svg_128">
   <path fill="#263238" fill-rule="evenodd" d="m181,76l-1,0l0,-1l1,0l0,1" id="svg_129"/>
  </g>
  <g id="svg_130">
   <path fill="#263238" fill-rule="evenodd" d="m145,73l-1,0l0,-1l1,0l0,1" id="svg_131"/>
  </g>
  <g id="svg_132">
   <path fill="#263238" fill-rule="evenodd" d="m165,71l1,0.5l-1,0.5l0,-1" id="svg_133"/>
  </g>
  <g id="svg_134">
   <path fill="#263238" fill-rule="evenodd" d="m160,71l-1,0l0,-1l1,0l0,1" id="svg_135"/>
  </g>
  <g id="svg_136">
   <path fill="#263238" fill-rule="evenodd" d="m154,74l0,-1l-1,0l0,1l1,0m10,0l0,-1l-1,0l0,1l1,0m-12,1l0,-1l-1,0l0,1l1,0m8,0l0,-1l-1,0l0,1l1,0m-21,3l0,-1l-1,0l0,1l1,0m3,0l0,-1l-1,0l0,1l1,0m4.5,0l0.5,-1l-1.5,0l-0.5,1l1.5,0m5,1l0.5,-0.5l-1.5,-1.5l-0.5,0.5l0.25,1.25l1.25,0.25m-7.5,0l0,-1l-1,0l0,1l1,0m-1,1l0,-1l-1,0l0,1l1,0m3,0l0,-1l-1,0l0,1l1,0m2,0l0,-1l-1,0l0,1l1,0m6,0l0,-1l-1,0l0,1l1,0m-7,1l0,-1l-1,0l0,1l1,0m2,0l0,-1l-1,0l0,1l1,0m-6,2l0,-1l-1,0l0,1l1,0m-2,0l0,-0.5l-2.5,-2.5l-1,0l-1.5,-1.5l1,-1.5l1,-0.5l-1,-0.5l0.25,-0.75l1.25,-0.25l1,-1l0.5,0.5l0,1.5l1,-0.5l0.25,-2.25l1.25,-0.25l0.5,0.5l-1,1l1.5,1.5l1,0l0.5,-0.5l-1,-1l1.5,-1.5l2,0l1.5,1.5l-1,1l0.5,0.5l1.25,-0.25l0.5,-2.5l4.75,-1.875l1.5,-0.375l1,-1l2,2l1.25,0.25l0.25,1.25l0.5,0.5l1.5,-1.5l0,-2l1.5,-1.5l0.5,0.5l0,1.5l-1,0.5l0.5,0.5l0.5,0l1,1.5l-1.5,1.5l-1.25,0.25l-0.25,1.25l0,0.5l-1,-0.5l-0.25,-1.25l-1.5,0l-0.5,2.5l-4.5,2.5l-0.25,1.25l-1,1l1,1l-0.5,0.5l-2.25,0.25l-1.5,4.5l-1.25,0.25l-0.5,0.5l1,1l-2.5,2.5l-1.25,0.25l-1.25,3.25l-0.5,0.5l-1,-1l-1,0l-2.5,-2.5l0,-2l-1,-1l0.5,-0.5l1,0l0.5,-0.5l-1,-1l1,-1l0,-2.5l1,-1.5l-1,-0.5m4,1l0,-1l-1,0l0,1l1,0m3,0l0,-1l-1,0l0,1l1,0m-2.25,1.75l0.25,-1.25l-0.5,-0.5l-1,1l-1,0l-0.5,1l2.75,-0.25m3.25,2.25l0,-1l-1,0l0,1l1,0m-4,3l0,-1l-1,0l0,1l1,0m3,0l0,-1l-1,0l0,1l1,0" id="svg_137"/>
  </g>
  <g id="svg_138">
   <path fill="#263238" fill-rule="evenodd" d="m162,71l-1,-1l0,-1l1,0.5l0,1.5" id="svg_139"/>
  </g>
  <g id="svg_140">
   <path fill="#263238" fill-rule="evenodd" d="m183,67l-1,0l0,-1l1,0l0,1" id="svg_141"/>
  </g>
  <g id="svg_142">
   <path fill="#263238" fill-rule="evenodd" d="m184,66l-1,0l0,-1l1,0l0,1" id="svg_143"/>
  </g>
  <g id="svg_144">
   <path fill="#263238" fill-rule="evenodd" d="m183,65l-1,0l0,-1l1,0l0,1" id="svg_145"/>
  </g>
  <g id="svg_146">
   <path fill="#263238" fill-rule="evenodd" d="m196.5,78l-1,0l-2.5,-2.5l-0.25,-1.25l-1.25,-0.25l-3,-3l-0.5,0.5l0,1l-1.5,1.5l-10,-1l-1.5,-1.5l-1,-5l-1,-1l1,-1l0,-1l0.5,-0.5l1,1l1,-1l1,1l2,0l1,-1l0.5,0.5l0,2l-1,1l1.5,1.5l3,0l1,-1l1,1l0.5,-0.5l0,-2l0.5,-0.5l1.5,1.5l0,1l-1,1l0.5,0.5l1,0l1.5,-1.5l-1,-1l0.5,-0.5l4,1l4.5,4.5l-1,1l0.5,1.5l0.25,1.75l-1.5,0l-0.5,-1.5l-1.5,0l-0.25,1.25l2,2l-0.5,0.5m-18,-10l0.5,-0.5l-1,-1l0.5,-0.5l1,0l0.5,-1l-3.5,0l-0.5,0.5l1,1l-1,1l0.5,0.5l2,0m0,2l0.5,-1l-1.5,0l-0.5,1l1.5,0m3,1l0.5,-0.5l-1.5,-1.5l-1.5,1.5l0.5,0.5l2,0m0.5,2l0,-1l-1,0l0,1l1,0m11.75,-3.25l0.25,-1.25l-0.5,-0.5l-1,1l-1,0l-0.5,1l2.75,-0.25m-7.75,0.25l0,-1l-1,0l0,1l1,0m4,1l0,-1l-1,0l0,1l1,0m7,0l0,-1l-1,0l0,1l1,0m-1,2l0,-1l-1,0l0,1l1,0" id="svg_147"/>
  </g>
  <g id="svg_148">
   <path fill="#263238" fill-rule="evenodd" d="m184,63l-1,0l0,-1l1,0l0,1" id="svg_149"/>
  </g>
  <g id="svg_150">
   <path fill="#263238" fill-rule="evenodd" d="m183,62l-1,0l0,-1l1,0l0,1" id="svg_151"/>
  </g>
  <g id="svg_152">
   <path fill="#263238" fill-rule="evenodd" d="m175,62l-1,0l0,-1l1,0l0,1" id="svg_153"/>
  </g>
  <g id="svg_154">
   <path fill="#263238" fill-rule="evenodd" d="m180,62l-1,-1l0,-1l1,0.5l0,1.5" id="svg_155"/>
  </g>
  <g id="svg_156">
   <path fill="#263238" fill-rule="evenodd" d="m178,63l-1,-0.5l0,-2.5l1,0.5l0,2.5" id="svg_157"/>
  </g>
  <g id="svg_158">
   <path fill="#263238" fill-rule="evenodd" d="m182,61l-1,-1l0,-1l1,0.5l0,1.5" id="svg_159"/>
  </g>
  <g id="svg_160">
   <path fill="#263238" fill-rule="evenodd" d="m179,60l-1,0l0,-1l1,0l0,1" id="svg_161"/>
  </g>
  <g id="svg_162">
   <path fill="#263238" fill-rule="evenodd" d="m183,59l-1,-1l0,-1l1,0.5l0,1.5" id="svg_163"/>
  </g>
  <g id="svg_164">
   <path fill="#263238" fill-rule="evenodd" d="m177.5,59l-1.25,-0.25l-0.25,-1.25l0.5,-0.5l1.5,1.5l-0.5,0.5" id="svg_165"/>
  </g>
  <g id="svg_166">
   <path fill="#263238" fill-rule="evenodd" d="m108,96l-1,0l0,-1l1,0l0,1" id="svg_167"/>
  </g>
  <g id="svg_168">
   <path fill="#263238" fill-rule="evenodd" d="m76,93l-1,0l0,-1l1,0l0,1" id="svg_169"/>
  </g>
  <g id="svg_170">
   <path fill="#263238" fill-rule="evenodd" d="m85,92l0,-1l1,0l0,1l-1,0" id="svg_171"/>
  </g>
  <g id="svg_172">
   <path fill="#263238" fill-rule="evenodd" d="m76,90l-1,0l0,-1l1,0l0,1" id="svg_173"/>
  </g>
  <g id="svg_174">
   <path fill="#263238" fill-rule="evenodd" d="m90,88l0,-1l1,0l0,1l-1,0" id="svg_175"/>
  </g>
  <g id="svg_176">
   <path fill="#263238" fill-rule="evenodd" d="m79,87l-1.5,0l-0.5,-0.5l0,-0.5l2,0l0,1" id="svg_177"/>
  </g>
  <g id="svg_178">
   <path fill="#263238" fill-rule="evenodd" d="m115,86l-1,0l0,-1l1,0l0,1" id="svg_179"/>
  </g>
  <g id="svg_180">
   <path fill="#263238" fill-rule="evenodd" d="m77,86l-0.75,0.25l-0.25,1.25l0,0.5l-1,-0.5l0.25,-2.25l1.75,-0.25l0,1" id="svg_181"/>
  </g>
  <g id="svg_182">
   <path fill="#263238" fill-rule="evenodd" d="m89,85l0,-0.5l0.5,-0.5l0.5,1l-1,0" id="svg_183"/>
  </g>
  <g id="svg_184">
   <path fill="#263238" fill-rule="evenodd" d="m88,82l1,0.5l-1,0.5l0,-1" id="svg_185"/>
  </g>
  <g id="svg_186">
   <path fill="#263238" fill-rule="evenodd" d="m97,81l0,-0.5l0.5,-0.5l0.5,0l0,0.5l-0.5,0.5l-0.5,0" id="svg_187"/>
  </g>
  <g id="svg_188">
   <path fill="#263238" fill-rule="evenodd" d="m98,79l-0.5,0l-0.5,-0.5l1,-0.5l0,1" id="svg_189"/>
  </g>
  <g id="svg_190">
   <path fill="#263238" fill-rule="evenodd" d="m102.5,75l-1.25,-0.25l-0.25,-1.25l0.5,-0.5l1.5,1.5l-0.5,0.5" id="svg_191"/>
  </g>
  <g id="svg_192">
   <path fill="#263238" fill-rule="evenodd" d="m104.5,72l-1.5,0l0.5,-1l1.5,0l-0.5,1" id="svg_193"/>
  </g>
  <g id="svg_194">
   <path fill="#263238" fill-rule="evenodd" d="m100,72l-1,0l0,-1l1,0l0,1" id="svg_195"/>
  </g>
  <g id="svg_196">
   <path fill="#263238" fill-rule="evenodd" d="m90,72l-1,0l0,-1l1,0l0,1" id="svg_197"/>
  </g>
  <g id="svg_198">
   <path fill="#263238" fill-rule="evenodd" d="m97,70l-1,0l0,-1l1,0l0,1" id="svg_199"/>
  </g>
  <g id="svg_200">
   <path fill="#263238" fill-rule="evenodd" d="m91,74l0,-2.5l1,-1l0,-0.5l1.5,-1l2.5,2.5l-0.5,0.5l-2.5,0l0.5,1l2,0l0.5,0.5l-2.5,2.5l-1.5,0l1,-1.5l-0.5,-0.5l-1.5,0" id="svg_201"/>
  </g>
  <g id="svg_202">
   <path fill="#263238" fill-rule="evenodd" d="m88,70l0,-0.5l0.5,-0.5l0.5,0l0,0.5l-0.5,0.5l-0.5,0" id="svg_203"/>
  </g>
  <g id="svg_204">
   <path fill="#263238" fill-rule="evenodd" d="m107,69l0,-0.5l0.5,-0.5l0.5,0l0,1l-1,0" id="svg_205"/>
  </g>
  <g id="svg_206">
   <path fill="#263238" fill-rule="evenodd" d="m102,69l-1,0l0,-1l1,0l0,1" id="svg_207"/>
  </g>
  <g id="svg_208">
   <path fill="#263238" fill-rule="evenodd" d="m95,69l-1,0l0,-1l1,0l0,1" id="svg_209"/>
  </g>
  <g id="svg_210">
   <path fill="#263238" fill-rule="evenodd" d="m91,68l0.5,0l0.5,0.5l0,1.5l-0.5,0l-0.5,-0.5l0,-1.5" id="svg_211"/>
  </g>
  <g id="svg_212">
   <path fill="#263238" fill-rule="evenodd" d="m108,68l0,-0.5l0.5,-0.5l0.5,1l-1,0" id="svg_213"/>
  </g>
  <g id="svg_214">
   <path fill="#263238" fill-rule="evenodd" d="m86,68l-1,0l0,-1l1,0l0,1" id="svg_215"/>
  </g>
  <g id="svg_216">
   <path fill="#263238" fill-rule="evenodd" d="m86.5,71l0.5,-1l-1.5,0l-0.5,1l1.5,0m26.5,0l0,-1l-1,0l0,1l1,0m-3,1l0,-1l-1,0l0,1l1,0m-23.5,2l0.5,-1l-1.5,0l-1,-1l-1.5,1.5l0.5,0.5l3,0m28.5,0l0,-1.5l-1,-0.5l0,1l1,1m-9,1l0,-1l-1,0l0,1l1,0m5.5,1l0.5,-0.5l-1.5,-1.5l-0.5,0.5l0.25,1.25l1.25,0.25m1.5,-1l0,-1l-1,0l0,1l1,0m-28.5,2l1.5,-1.5l-0.5,-0.5l-3,0l-0.5,1l0.5,0l2,1m-2.5,0l0,-1l-1,0l0,1l1,0m23,0l0,-1l-1,0l0,1l1,0m3,1l0,-1.5l-1,-0.5l0,1l1,1m-27,0l0,-1l-1,0l0,1l1,0m2,0l0,-1l-1,0l0,1l1,0m4,0l0,-1l-1,0l0,1l1,0m16.75,0.75l0.25,-1.25l-0.5,-0.5l-1,1l-2,0l-0.5,1l3.75,-0.25m6.25,-0.75l0,-1l-1,0l0,1l1,0m-22,1l0,-1l-1,0l0,1l1,0m-6,1l0,-1l-1,0l0,1l1,0m2,0l0,-1l-1,0l0,1l1,0m3,0l0,-1l-1,0l0,1l1,0m-7,1l0,-1l-1,0l0,1l1,0m3.5,1l0.5,-0.5l-1.5,-1.5l-0.5,0.5l0.25,1.25l1.25,0.25m2.5,-1l0,-1l-1,0l0,1l1,0m15,0l0,-1l-1,0l0,1l1,0m-20,1l0,-1l-1,0l0,1l1,0m29,0l0,-1l-1,0l0,1l1,0m-25,1l0,-1l-1,0l0,1l1,0m18,0l0,-1l-1,0l0,1l1,0m-24,1l0,-1l-1,0l0,1l1,0m25,0l0,-1l-1,0l0,1l1,0m-22.5,2l1.5,-1.5l-0.5,-0.5l-1.25,0.75l0.25,1.25m15,2l0.5,-1l-0.5,0l-1.25,-0.25l-0.25,-2.25l-1,-0.5l0,1.5l-1,1l1.5,1.5l2,0m6,-3l0.5,-1l-1.5,0l-0.5,1l1.5,0m6.5,0l0,-1l-1,0l0,1l1,0m-24,1l0,-1l-1,0l0,1l1,0m8,0l0,-1l-1,0l0,1l1,0m7.5,0l0.5,-1l-1.5,0l-0.5,1l1.5,0m-21.5,0l0,-0.5l-0.5,-0.5l-1.5,0l0,-1.5l1,-1l-0.5,-0.5l-1.5,0l0.5,-1l1,0l0.5,-0.5l-1,-1l2,-2l0.25,-1.25l1.5,-0.5l0.25,-1.25l-1,-1l0.5,-0.5l2.25,-0.25l1.5,-3.5l3.75,0.75l1,3.5l-1,1l1.5,1.5l0.5,-0.5l0.25,-1.25l0.75,-0.25l0,1.5l0.5,0.5l0.5,0l-1.5,2l-1.5,0l0.5,1l1,0l0.5,0.5l-1.5,1.5l-1.5,1l-1.5,0l-0.5,0.5l0.5,0.5l1.5,0l-1,1.5l0,1l0.5,0.5l1.5,-1l0.5,1l0.5,-1l2,-1.5l-1,-1l0.5,-0.5l1,0l2,-2l1,1l1.5,0l-0.75,2.75l1.5,0l1.25,-3.25l-1,-0.5l0,-1l1,-0.5l-1,-0.5l0,-0.5l1.5,-1.5l1,0l1,1l1,-1l1.25,-0.25l0.25,-1.25l-1,-1l0.5,-0.5l2.25,-0.25l1.25,-3.75l0.25,1.75l1.25,0.25l0.5,-0.5l-1,-1.5l0.5,0l0.5,-0.5l0,-0.5l1,0.5l0,1l0.5,0.5l1,-1l1,0l1,1l0.5,-0.5l0,-3l0.5,-0.5l1.5,1.5l0.25,1.25l1.25,0.25l0.5,0.5l-1,1l-0.25,3.25l-1.5,0.5l-0.625,1.75l-0.625,3.5l-1.5,1.5l-1.25,0.25l-0.25,2.25l-1,1l0.5,0.5l2,1l2.5,0.5l1.5,-0.5l0.5,0.5l-1,1l1,1l-1,1l0,1l-1.5,1.5l-1,-1l-0.5,0.5l0,1.5l-1,-0.5l0,-3.5l-1,0.5l0,4l-1.5,1.5l-1.5,-0.5l-1.75,-0.25l-0.25,1.25l-0.5,0.5l-1,-1l-2.25,-0.25l-0.5,-1.5l-1.25,-0.25l-2,-2l-0.5,0.5l-0.25,1.375l-4.75,0.125l0.5,-1l1,0l1.5,-1.5l-0.5,-0.5l-1,0l-1,1l-0.5,-0.5l0,-1.5l-1,0.5l0,1l-1,1l1,1l0,1l1,1l-3.5,3.5l-1.5,-0.5l-2,-1l-1.5,-0.5l-0.5,0.5l1,1l-1.5,1.5l-0.5,-0.5l-0.25,-1.25l-1.25,-0.25l-0.5,0.5l1,1l-0.5,0.5l-1.25,-0.25l-0.5,-1.5l-3.25,-1.25l-1.5,-1.5l2,-2l0,-4.5l1,0.5l0,1l0.5,0.5l0.5,-0.5l0,-2.5l1.5,1l0.5,-0.5l-0.25,-1.25l-1.75,-0.25m26,1l0,-1l-1,0l0,1l1,0m6,0l0,-1l-1,0l0,1l1,0m-27,1l0,-1l-1,0l0,1l1,0m20,0l0,-1l-1,0l0,1l1,0m-22,1l0,-1l-1,0l0,1l1,0m3,0l0,-1l-1,0l0,1l1,0m6,-1l1,-0.5l-1,-0.5l-0.5,-1l-0.5,0.5l0,0.5l-1.5,0l-1.5,1.5l0.5,0.5l1.5,-0.5l1,-0.5l0.5,1l0.5,-1m8,1l0,-1l-1,0l0,1l1,0m3.75,0.75l0.25,-1.25l-0.5,-0.5l-1.5,1.5l0.5,0.5l1.25,-0.25m7.25,-0.75l0,-1l-1,0l0,1l1,0m-23,1l0,-1l-1,0l0,1l1,0m27,0l0,-1l-1,0l0,1l1,0m-14,1l0,-1l-1,0l0,1l1,0m6,0l0,-1l-1,0l0,1l1,0m3,0l0,-1l-1,0l0,1l1,0m-28.5,3l1.5,-1.5l-1.5,-1.5l-0.5,0.5l0,1l-1,1l0.5,0.5l1,0m2.5,-2l0,-1l-1,0l0,1l1,0m14,0l0,-1l-1,0l0,1l1,0m6.5,1l0.5,-0.5l-0.25,-1.25l-1.25,-0.25l-0.5,0.5l1.5,1.5m-17.5,-1l1.5,0l0.5,-0.5l-0.5,-0.5l-1.5,0l-0.5,-1l-0.5,0.5l0,0.5l-1,0.5l0.5,0.5l0.5,0l0,1.5l0.5,0.5l0.5,-0.5l0,-1.5m3,2l0,-1.5l-1,-0.5l0,1l1,1m2,-1l0,-1l-1,0l0,1l1,0m17,0l0,-1l-1,0l0,1l1,0m2,1l0,-1l-1,0l0,1l1,0m-22,1l0,-1l-1,0l0,1l1,0m2,2l0,-1l-1,0l0,1l1,0" id="svg_217"/>
  </g>
  <g id="svg_218">
   <path fill="#263238" fill-rule="evenodd" d="m111.5,68l-1,0l-0.5,-0.5l1.5,-1.5l1,0l0.5,0.5l-1.5,1.5" id="svg_219"/>
  </g>
  <g id="svg_220">
   <path fill="#263238" fill-rule="evenodd" d="m99,67l-1,0l0,-1l1,0l0,1" id="svg_221"/>
  </g>
  <g id="svg_222">
   <path fill="#263238" fill-rule="evenodd" d="m96,68l-1,-1l0,-1l1,0.5l0,1.5" id="svg_223"/>
  </g>
  <g id="svg_224">
   <path fill="#263238" fill-rule="evenodd" d="m89,69l-0.25,-0.75l-1.25,-0.25l-0.5,0l0.5,-1l1,0l1,-1l1.5,2l-0.5,0l-1,1l-0.5,0" id="svg_225"/>
  </g>
  <g id="svg_226">
   <path fill="#263238" fill-rule="evenodd" d="m100,66l-1,0l0,-1l1,0l0,1" id="svg_227"/>
  </g>
  <g id="svg_228">
   <path fill="#263238" fill-rule="evenodd" d="m93,66l-1,0l0,-1l1,0l0,1" id="svg_229"/>
  </g>
  <g id="svg_230">
   <path fill="#263238" fill-rule="evenodd" d="m91,66l-1,0l0,-1l1,0l0,1" id="svg_231"/>
  </g>
  <g id="svg_232">
   <path fill="#263238" fill-rule="evenodd" d="m99,65l-1,0l0,-1l1,0l0,1" id="svg_233"/>
  </g>
  <g id="svg_234">
   <path fill="#263238" fill-rule="evenodd" d="m97,65l-1,0l0,-1l1,0l0,1" id="svg_235"/>
  </g>
  <g id="svg_236">
   <path fill="#263238" fill-rule="evenodd" d="m95,66l-1,-0.5l0,-2.5l1,0.5l0,2.5" id="svg_237"/>
  </g>
  <g id="svg_238">
   <path fill="#263238" fill-rule="evenodd" d="m2,103l0,-0.5l0.5,-0.5l1.5,0l0,0.5l-0.5,0.5l-1.5,0" id="svg_239"/>
  </g>
  <g id="svg_240">
   <path fill="#263238" fill-rule="evenodd" d="m4,102l0,-1l0.5,0l0.5,0.5l0,0.5l-1,0" id="svg_241"/>
  </g>
  <g id="svg_242">
   <path fill="#263238" fill-rule="evenodd" d="m5,102l1.75,-0.25l1.25,-1.75l1,1.5l-0.25,3.25l-3.25,1.25l-0.5,0.5l1,1l0,1l-2.5,2.5l-0.5,-0.5l0,-2.5l-1,0.5l0,1.5l-1,-0.5l0,-1l-1,-1l0.5,-0.5l1.25,-0.25l0,-1.5l-1.25,-0.25l-0.5,-0.5l2,-1.5l1,2.5l0.5,0.5l1.5,-1.5l0,-2.5" id="svg_243"/>
  </g>
  <g id="svg_244">
   <path fill="#263238" fill-rule="evenodd" d="m8,99l1.5,-1l0.5,0.5l-0.25,1.25l-1.75,0.25l0,-1" id="svg_245"/>
  </g>
  <g id="svg_246">
   <path fill="#263238" fill-rule="evenodd" d="m11,98l-1,0l0,-1l1,0l0,1" id="svg_247"/>
  </g>
  <g id="svg_248">
   <path fill="#263238" fill-rule="evenodd" d="m4,101l-3,0l0.5,-1l1.25,-0.25l0.5,-2.5l1.75,-0.25l0,1.5l1,1l-0.5,0.5l-1.25,0.25l-0.25,0.75" id="svg_249"/>
  </g>
  <g id="svg_250">
   <path fill="#263238" fill-rule="evenodd" d="m6,97l1.5,-1l0.5,0.5l0,2.5l-0.5,0l-1.5,-1.5l0,-0.5" id="svg_251"/>
  </g>
  <g id="svg_252">
   <path fill="#263238" fill-rule="evenodd" d="m5,97l0,-1.5l0.5,-0.5l0.5,0.5l0,1.5l-1,0" id="svg_253"/>
  </g>
  <g id="svg_254">
   <path fill="#263238" fill-rule="evenodd" d="m11,88l0,-0.5l0.5,-0.5l1.5,0l0,1.5l-0.5,0.5l-1.5,-1" id="svg_255"/>
  </g>
  <g id="svg_256">
   <path fill="#263238" fill-rule="evenodd" d="m13,85l1,0.5l-1,1.5l0,-2" id="svg_257"/>
  </g>
  <g id="svg_258">
   <path fill="#263238" fill-rule="evenodd" d="m11,88l0.25,1.75l1.25,0.25l0.5,0.5l-1,1l0.5,0.5l1,0l0.5,0.5l-1,1l-0.25,1.25l-1.75,0.75l-1.75,0.25l-0.5,-1.5l-1.5,-0.5l-0.25,-1.25l-1,-1l1.5,-1.5l1,0l0.5,-0.5l-1,-1l1,-1l1,-2.5l0,2.5l0.5,0.5l0.5,0m-0.5,5l0.5,-0.5l-0.25,-1.25l-2.25,-0.25l-0.5,1l0.5,0l2,1m1.5,1l0,-1l-1,0l0,1l1,0m-1,1l0,-1l-1,0l0,1l1,0" id="svg_259"/>
  </g>
  <g id="svg_260">
   <path fill="#263238" fill-rule="evenodd" d="m16,87l-1,-0.5l0,-3l0.5,-0.5l1.5,1.5l-1,1l0,1.5" id="svg_261"/>
  </g>
  <g id="svg_262">
   <path fill="#263238" fill-rule="evenodd" d="m10,85l1.25,-3.75l1.25,-0.25l0.5,0.5l-1,1l1,1l0,1.5l-3,0" id="svg_263"/>
  </g>
  <g id="svg_264">
   <path fill="#263238" fill-rule="evenodd" d="m18.5,81l-2.5,0l0.5,-1l2.5,0l-0.5,1" id="svg_265"/>
  </g>
  <g id="svg_266">
   <path fill="#263238" fill-rule="evenodd" d="m14,81l-1,0l0,-1l1,0l0,1" id="svg_267"/>
  </g>
  <g id="svg_268">
   <path fill="#263238" fill-rule="evenodd" d="m13,80l-1,0l0,-1l1,0l0,1" id="svg_269"/>
  </g>
  <g id="svg_270">
   <path fill="#263238" fill-rule="evenodd" d="m20,79l-1,-1l0,-1l1,0.5l0,1.5" id="svg_271"/>
  </g>
  <g id="svg_272">
   <path fill="#263238" fill-rule="evenodd" d="m15,75l-0.5,0l-0.5,-0.5l1,-0.5l0,1" id="svg_273"/>
  </g>
  <g id="svg_274">
   <path fill="#263238" fill-rule="evenodd" d="m22,73l-1,0l0,-1l1,0l0,1" id="svg_275"/>
  </g>
  <g id="svg_276">
   <path fill="#263238" fill-rule="evenodd" d="m19,71l0,1.5l-0.5,0.5l-0.5,-0.5l0,-1.5l1,0" id="svg_277"/>
  </g>
  <g id="svg_278">
   <path fill="#263238" fill-rule="evenodd" d="m15,74l0,-3l1,0.5l1,7l-1.5,1.5l-1.25,-0.25l-0.25,-1.25l-1,-1l2,-2.5l1,-0.5l-1,-0.5m1,3l0,-1l-1,0l0,1l1,0" id="svg_279"/>
  </g>
  <g id="svg_280">
   <path fill="#263238" fill-rule="evenodd" d="m18,71l-0.5,0l-0.5,-0.5l1,-0.5l0,1" id="svg_281"/>
  </g>
  <g id="svg_282">
   <path fill="#263238" fill-rule="evenodd" d="m23,70l-1,0l0,-1l1,0l0,1" id="svg_283"/>
  </g>
  <g id="svg_284">
   <path fill="#263238" fill-rule="evenodd" d="m19,70l0.5,0l0.5,-0.5l0,-0.5l1,0.5l-0.25,1.25l-1.75,0.25l0,-1" id="svg_285"/>
  </g>
  <g id="svg_286">
   <path fill="#263238" fill-rule="evenodd" d="m18,70l0,-0.5l-1,-1l0.5,-0.5l2.5,1l-0.5,0l-0.5,0.5l0,0.5l-1,0" id="svg_287"/>
  </g>
  <g id="svg_288">
   <path fill="#263238" fill-rule="evenodd" d="m23.5,68l-1.5,0l0.5,-1l1.5,0l-0.5,1" id="svg_289"/>
  </g>
  <g id="svg_290">
   <path fill="#263238" fill-rule="evenodd" d="m21.75,66.75l-3.25,-0.75l-0.5,0l0.5,-1l1,0l1,-1l1.5,1.5l-0.25,1.25" id="svg_291"/>
  </g>
  <g id="svg_292">
   <path fill="#263238" fill-rule="evenodd" d="m24,63l-1,0l0,-1l1,0l0,1" id="svg_293"/>
  </g>
  <g id="svg_294">
   <path fill="#263238" fill-rule="evenodd" d="m26,63l-1,-1l0,-1l1,0.5l0,1.5" id="svg_295"/>
  </g>
  <g id="svg_296">
   <path fill="#263238" fill-rule="evenodd" d="m22.5,64l-3.25,-1.25l-0.25,-2.25l0.5,-0.5l1,1l1.25,0.25l0.25,1.25l1,1l-0.5,0.5" id="svg_297"/>
  </g>
  <g id="svg_298">
   <path fill="#263238" fill-rule="evenodd" d="m25,59l-1,0l0,-1l1,0l0,1" id="svg_299"/>
  </g>
  <g id="svg_300">
   <path fill="#263238" fill-rule="evenodd" d="m22.5,60l-1.25,-0.25l-0.25,-1.25l0.5,-0.5l1.5,1.5l-0.5,0.5" id="svg_301"/>
  </g>
  <g id="svg_302">
   <path fill="#263238" fill-rule="evenodd" d="m23,57l-0.5,1l-0.5,-1l1,0" id="svg_303"/>
  </g>
  <g id="svg_304">
   <path fill="#263238" fill-rule="evenodd" d="m191,56l-1,0l0,-1l1,0l0,1" id="svg_305"/>
  </g>
  <g id="svg_306">
   <path fill="#263238" fill-rule="evenodd" d="m188.75,55.75l-1.25,0.25l-0.5,-0.5l1.5,-1.5l0.5,0.5l-0.25,1.25" id="svg_307"/>
  </g>
  <g id="svg_308">
   <path fill="#263238" fill-rule="evenodd" d="m192,53l-1,0l0,-1l1,0l0,1" id="svg_309"/>
  </g>
  <g id="svg_310">
   <path fill="#263238" fill-rule="evenodd" d="m196.5,52l-2.5,0l0.5,-1l2.5,0l-0.5,1" id="svg_311"/>
  </g>
  <g id="svg_312">
   <path fill="#263238" fill-rule="evenodd" d="m191,50l-1,0l0,-1l1,0l0,1" id="svg_313"/>
  </g>
  <g id="svg_314">
   <path fill="#263238" fill-rule="evenodd" d="m196.5,49l-1.5,0l0.5,-1l1.5,0l-0.5,1" id="svg_315"/>
  </g>
  <g id="svg_316">
   <path fill="#263238" fill-rule="evenodd" d="m193,47l-1,0l0,-1l1,0l0,1" id="svg_317"/>
  </g>
  <g id="svg_318">
   <path fill="#263238" fill-rule="evenodd" d="m199.5,47l-1.5,-1.5l0.5,-0.5l1.25,0.25l0.25,1.25l-0.5,0.5" id="svg_319"/>
  </g>
  <g id="svg_320">
   <path fill="#263238" fill-rule="evenodd" d="m194,46l-1,0l0,-1l1,0l0,1" id="svg_321"/>
  </g>
  <g id="svg_322">
   <path fill="#263238" fill-rule="evenodd" d="m201,45l-1,0l0,-1l1,0l0,1" id="svg_323"/>
  </g>
  <g id="svg_324">
   <path fill="#263238" fill-rule="evenodd" d="m186,45l-1,0l0,-1l1,0l0,1" id="svg_325"/>
  </g>
  <g id="svg_326">
   <path fill="#263238" fill-rule="evenodd" d="m197,44l-1,0l0,-1l1,0l0,1" id="svg_327"/>
  </g>
  <g id="svg_328">
   <path fill="#263238" fill-rule="evenodd" d="m195,44l-1,0l0,-1l1,0l0,1" id="svg_329"/>
  </g>
  <g id="svg_330">
   <path fill="#263238" fill-rule="evenodd" d="m189,44l-1,0l0,-1l1,0l0,1" id="svg_331"/>
  </g>
  <g id="svg_332">
   <path fill="#263238" fill-rule="evenodd" d="m196,42l-1,0l0,-1l1,0l0,1" id="svg_333"/>
  </g>
  <g id="svg_334">
   <path fill="#263238" fill-rule="evenodd" d="m187.5,43l-1.25,-0.25l-0.25,-1.25l0.5,-0.5l1.5,1.5l-0.5,0.5" id="svg_335"/>
  </g>
  <g id="svg_336">
   <path fill="#263238" fill-rule="evenodd" d="m197,41l-1,0l0,-1l1,0l0,1" id="svg_337"/>
  </g>
  <g id="svg_338">
   <path fill="#263238" fill-rule="evenodd" d="m203.75,40.75l-1.5,0l0,-1.5l1.5,0l0,1.5" id="svg_339"/>
  </g>
  <g id="svg_340">
   <path fill="#263238" fill-rule="evenodd" d="m200,40l-1,0l0,-1l1,0l0,1" id="svg_341"/>
  </g>
  <g id="svg_342">
   <path fill="#263238" fill-rule="evenodd" d="m186,40l-1,0l0,-1l1,0l0,1" id="svg_343"/>
  </g>
  <g id="svg_344">
   <path fill="#263238" fill-rule="evenodd" d="m205,39l-1,0l0,-1l1,0l0,1" id="svg_345"/>
  </g>
  <g id="svg_346">
   <path fill="#263238" fill-rule="evenodd" d="m187,39l-1,0l0,-1l1,0l0,1" id="svg_347"/>
  </g>
  <g id="svg_348">
   <path fill="#263238" fill-rule="evenodd" d="m203,38l-1,0l0,-1l1,0l0,1" id="svg_349"/>
  </g>
  <g id="svg_350">
   <path fill="#263238" fill-rule="evenodd" d="m192,38l-1,0l0,-1l1,0l0,1" id="svg_351"/>
  </g>
  <g id="svg_352">
   <path fill="#263238" fill-rule="evenodd" d="m190.5,42l-1,0l-1.5,-1.5l0,-2l1.5,-1.5l0.5,0.5l0,3l1,1l-0.5,0.5" id="svg_353"/>
  </g>
  <g id="svg_354">
   <path fill="#263238" fill-rule="evenodd" d="m205,37l-1,0l0,-1l1,0l0,1" id="svg_355"/>
  </g>
  <g id="svg_356">
   <path fill="#263238" fill-rule="evenodd" d="m199,37l-1,0l0,-1l1,0l0,1" id="svg_357"/>
  </g>
  <g id="svg_358">
   <path fill="#263238" fill-rule="evenodd" d="m206,35l-1,0l0,-1l1,0l0,1" id="svg_359"/>
  </g>
  <g id="svg_360">
   <path fill="#263238" fill-rule="evenodd" d="m204,35l-1,0l0,-1l1,0l0,1" id="svg_361"/>
  </g>
  <g id="svg_362">
   <path fill="#263238" fill-rule="evenodd" d="m195,35l-1,0l0,-1l1,0l0,1" id="svg_363"/>
  </g>
  <g id="svg_364">
   <path fill="#263238" fill-rule="evenodd" d="m200,34l-1,0l0,-1l1,0l0,1" id="svg_365"/>
  </g>
  <g id="svg_366">
   <path fill="#263238" fill-rule="evenodd" d="m192,36l-1,-1l-1,-1.5l0.5,-0.5l2,0l0.5,0.5l-1,1l0,1.5" id="svg_367"/>
  </g>
  <g id="svg_368">
   <path fill="#263238" fill-rule="evenodd" d="m188.75,34.75l-1.25,0.25l-0.5,-0.5l1.5,-1.5l0.5,0.5l-0.25,1.25" id="svg_369"/>
  </g>
  <g id="svg_370">
   <path fill="#263238" fill-rule="evenodd" d="m206,32l-0.5,0l-0.5,-0.5l1,-0.5l0,1" id="svg_371"/>
  </g>
  <g id="svg_372">
   <path fill="#263238" fill-rule="evenodd" d="m192.5,32l-2.5,0l0.5,-1l2.5,0l-0.5,1" id="svg_373"/>
  </g>
  <g id="svg_374">
   <path fill="#263238" fill-rule="evenodd" d="m206,31l0.25,-0.75l1.5,0l0,2.5l-1.75,-0.75l1,-0.5l-1,-0.5" id="svg_375"/>
  </g>
  <g id="svg_376">
   <path fill="#263238" fill-rule="evenodd" d="m194,31l-1,0l0,-1l1,0l0,1" id="svg_377"/>
  </g>
  <g id="svg_378">
   <path fill="#263238" fill-rule="evenodd" d="m190,31l-1,0l0,-1l1,0l0,1" id="svg_379"/>
  </g>
  <g id="svg_380">
   <path fill="#263238" fill-rule="evenodd" d="m206,30l-1,0l0,-1l1,0l0,1" id="svg_381"/>
  </g>
  <g id="svg_382">
   <path fill="#263238" fill-rule="evenodd" d="m203.5,30l-1.5,0l0.5,-1l1.5,0l-0.5,1" id="svg_383"/>
  </g>
  <g id="svg_384">
   <path fill="#263238" fill-rule="evenodd" d="m197.5,30l-1.5,0l0.5,-1l1.5,0l-0.5,1" id="svg_385"/>
  </g>
  <g id="svg_386">
   <path fill="#263238" fill-rule="evenodd" d="m195,30l-1,0l0,-1l1,0l0,1" id="svg_387"/>
  </g>
  <g id="svg_388">
   <path fill="#263238" fill-rule="evenodd" d="m209,29l-1,0l0,-1l1,0l0,1" id="svg_389"/>
  </g>
  <g id="svg_390">
   <path fill="#263238" fill-rule="evenodd" d="m205,28l-1,0l0,-1l1,0l0,1" id="svg_391"/>
  </g>
  <g id="svg_392">
   <path fill="#263238" fill-rule="evenodd" d="m199,28l-1,0l0,-1l1,0l0,1" id="svg_393"/>
  </g>
  <g id="svg_394">
   <path fill="#263238" fill-rule="evenodd" d="m209,27l-1,0l0,-1l1,0l0,1" id="svg_395"/>
  </g>
  <g id="svg_396">
   <path fill="#263238" fill-rule="evenodd" d="m204,27l-1,0l0,-1l1,0l0,1" id="svg_397"/>
  </g>
  <g id="svg_398">
   <path fill="#263238" fill-rule="evenodd" d="m193,29l-1,-0.5l0.25,-2.25l1.25,-0.25l0.5,0.5l-1,1l0,1.5" id="svg_399"/>
  </g>
  <g id="svg_400">
   <path fill="#263238" fill-rule="evenodd" d="m210.5,26l-1.5,0l0.5,-1l1.5,0l-0.5,1" id="svg_401"/>
  </g>
  <g id="svg_402">
   <path fill="#263238" fill-rule="evenodd" d="m197,28l-1,-0.5l0,-2.5l1,0.5l0,2.5" id="svg_403"/>
  </g>
  <g id="svg_404">
   <path fill="#263238" fill-rule="evenodd" d="m205,25l-1,0l0,-1l1,0l0,1" id="svg_405"/>
  </g>
  <g id="svg_406">
   <path fill="#263238" fill-rule="evenodd" d="m212,24l-1,0l0,-1l1,0l0,1" id="svg_407"/>
  </g>
  <g id="svg_408">
   <path fill="#263238" fill-rule="evenodd" d="m210,24l-1,0l0,-1l1,0l0,1" id="svg_409"/>
  </g>
  <g id="svg_410">
   <path fill="#263238" fill-rule="evenodd" d="m206.5,24l-1.5,0l0.5,-1l1.5,0l-0.5,1" id="svg_411"/>
  </g>
  <g id="svg_412">
   <path fill="#263238" fill-rule="evenodd" d="m195,25l-1,-1l0,-1l1,0.5l0,1.5" id="svg_413"/>
  </g>
  <g id="svg_414">
   <path fill="#263238" fill-rule="evenodd" d="m199,23l-1,0l0,-1l1,0l0,1" id="svg_415"/>
  </g>
  <g id="svg_416">
   <path fill="#263238" fill-rule="evenodd" d="m196,23l-1,0l0,-1l1,0l0,1" id="svg_417"/>
  </g>
  <g id="svg_418">
   <path fill="#263238" fill-rule="evenodd" d="m200,22l-1,0l0,-1l1,0l0,1" id="svg_419"/>
  </g>
  <g id="svg_420">
   <path fill="#263238" fill-rule="evenodd" d="m197,22l-1,0l0,-1l1,0l0,1" id="svg_421"/>
  </g>
  <g id="svg_422">
   <path fill="#263238" fill-rule="evenodd" d="m212.5,22l-1.5,-1.5l0.5,-0.5l1.25,0.25l0.25,1.25l-0.5,0.5" id="svg_423"/>
  </g>
  <g id="svg_424">
   <path fill="#263238" fill-rule="evenodd" d="m210,21l-1,0l0,-1l1,0l0,1" id="svg_425"/>
  </g>
  <g id="svg_426">
   <path fill="#263238" fill-rule="evenodd" d="m207.5,21l-1.25,-0.25l-0.25,-1.25l0.5,-0.5l1.5,1.5l-0.5,0.5" id="svg_427"/>
  </g>
  <g id="svg_428">
   <path fill="#263238" fill-rule="evenodd" d="m211,19l-1,0l0,-1l1,0l0,1" id="svg_429"/>
  </g>
  <g id="svg_430">
   <path fill="#263238" fill-rule="evenodd" d="m208,19l-1,0l0,-1l1,0l0,1" id="svg_431"/>
  </g>
  <g id="svg_432">
   <path fill="#263238" fill-rule="evenodd" d="m199,19l-1,0l0,-1l1,0l0,1" id="svg_433"/>
  </g>
  <g id="svg_434">
   <path fill="#263238" fill-rule="evenodd" d="m213,18l-1,0l0,-1l1,0l0,1" id="svg_435"/>
  </g>
  <g id="svg_436">
   <path fill="#263238" fill-rule="evenodd" d="m200.5,20l-0.5,-0.5l0,-2l0.5,-0.5l1,1l1,-1l1.5,1.5l-0.5,0.5l-2,0l-1,1" id="svg_437"/>
  </g>
  <g id="svg_438">
   <path fill="#263238" fill-rule="evenodd" d="m215,16l-1,0l0,-1l1,0l0,1" id="svg_439"/>
  </g>
  <g id="svg_440">
   <path fill="#263238" fill-rule="evenodd" d="m207,16l-1,0l0,-1l1,0l0,1" id="svg_441"/>
  </g>
  <g id="svg_442">
   <path fill="#263238" fill-rule="evenodd" d="m202,16l-1,0l0,-1l1,0l0,1" id="svg_443"/>
  </g>
  <g id="svg_444">
   <path fill="#263238" fill-rule="evenodd" d="m217,15l-1,0l0,-1l1,0l0,1" id="svg_445"/>
  </g>
  <g id="svg_446">
   <path fill="#263238" fill-rule="evenodd" d="m210,16l-1,-1l0,-1l1,0.5l0,1.5" id="svg_447"/>
  </g>
  <g id="svg_448">
   <path fill="#263238" fill-rule="evenodd" d="m200,15l-1,0l0,-1l1,0l0,1" id="svg_449"/>
  </g>
  <g id="svg_450">
   <path fill="#263238" fill-rule="evenodd" d="m213,14l-1,0l0,-1l1,0l0,1" id="svg_451"/>
  </g>
  <g id="svg_452">
   <path fill="#263238" fill-rule="evenodd" d="m205,14l-1,0l0,-1l1,0l0,1" id="svg_453"/>
  </g>
  <g id="svg_454">
   <path fill="#263238" fill-rule="evenodd" d="m201.5,14l-1.5,0l0.5,-1l1.5,0l-0.5,1" id="svg_455"/>
  </g>
  <g id="svg_456">
   <path fill="#263238" fill-rule="evenodd" d="m203,13l-1,0l0,-1l1,0l0,1" id="svg_457"/>
  </g>
  <g id="svg_458">
   <path fill="#263238" fill-rule="evenodd" d="m208,12l-1,0l0,-1l1,0l0,1" id="svg_459"/>
  </g>
  <g id="svg_460">
   <path fill="#263238" fill-rule="evenodd" d="m217.5,12l-1.25,-0.25l-0.25,-1.25l0.5,-0.5l1.5,1.5l-0.5,0.5" id="svg_461"/>
  </g>
  <g id="svg_462">
   <path fill="#263238" fill-rule="evenodd" d="m207,11l-1,0l0,-1l1,0l0,1" id="svg_463"/>
  </g>
  <g id="svg_464">
   <path fill="#263238" fill-rule="evenodd" d="m209,11l-1,-1l0,-1l1,0.5l0,1.5" id="svg_465"/>
  </g>
  <g id="svg_466">
   <path fill="#263238" fill-rule="evenodd" d="m215,9l-1,0l0,-1l1,0l0,1" id="svg_467"/>
  </g>
  <g id="svg_468">
   <path fill="#263238" fill-rule="evenodd" d="m211,9l-1,-1l0,-1l1,0.5l0,1.5" id="svg_469"/>
  </g>
  <g id="svg_470">
   <path fill="#263238" fill-rule="evenodd" d="m205.5,10l-0.5,-0.5l0,-2l0.5,-0.5l1.5,1.5l-1.5,1.5" id="svg_471"/>
  </g>
  <g id="svg_472">
   <path fill="#263238" fill-rule="evenodd" d="m217.5,8l-1.5,-1.5l0.5,-0.5l2,0l0.5,0.5l-1.5,1.5" id="svg_473"/>
  </g>
  <g id="svg_474">
   <path fill="#263238" fill-rule="evenodd" d="m214,7l-1,-1l0,-1l1,0.5l0,1.5" id="svg_475"/>
  </g>
  <g id="svg_476">
   <path fill="#263238" fill-rule="evenodd" d="m209,5l-1,0l0,-1l1,0l0,1" id="svg_477"/>
  </g>
  <g id="svg_478">
   <path fill="#263238" fill-rule="evenodd" d="m216,6l-1.25,-1.25l-1.25,-0.75l-0.5,0l0.5,-1l3,0l0.5,0.5l-1,1l0,1.5" id="svg_479"/>
  </g>
  <g id="svg_480">
   <path fill="#263238" fill-rule="evenodd" d="m212,4l-1,0l0,-1l1,0l0,1" id="svg_481"/>
  </g>
  <g id="svg_482">
   <path fill="#263238" fill-rule="evenodd" d="m218,3l-1,0l0,-1l1,0l0,1" id="svg_483"/>
  </g>
  <g id="svg_484">
   <path fill="#263238" fill-rule="evenodd" d="m213,3l-1,0l0,-1l1,0l0,1" id="svg_485"/>
  </g>
  <g id="svg_486">
   <path fill="#263238" fill-rule="evenodd" d="m215,2l-1,0l0,-1l1,0l0,1" id="svg_487"/>
  </g>
  <g id="svg_488">
   <path fill="#263238" fill-rule="evenodd" d="m216,1l-1,0l0,-1l1,0l0,1" id="svg_489"/>
  </g>
  <g id="svg_490">
   <path fill="#263238" fill-rule="evenodd" d="m180,59l-1,-0.5l0,-2l1.5,-1.5l3.5,0l-0.5,1l-3.25,1.25l-0.25,1.25l0,0.5" id="svg_491"/>
  </g>
  <g id="svg_492">
   <path fill="#263238" fill-rule="evenodd" d="m178.75,55.75l-2.75,0.25l0.5,-1l1,0l1,-1l0.5,0.5l-0.25,1.25" id="svg_493"/>
  </g>
  <g id="svg_494">
   <path fill="#263238" fill-rule="evenodd" d="m184,54l-1,0l0,-1l1,0l0,1" id="svg_495"/>
  </g>
  <g id="svg_496">
   <path fill="#263238" fill-rule="evenodd" d="m181.5,53l-1.5,-1.5l0.5,-0.5l1.25,0.25l0.25,1.25l-0.5,0.5" id="svg_497"/>
  </g>
  <g id="svg_498">
   <path fill="#263238" fill-rule="evenodd" d="m180,51l-1,0l0,-1l1,0l0,1" id="svg_499"/>
  </g>
  <g id="svg_500">
   <path fill="#263238" fill-rule="evenodd" d="m184,50l-1,0l0,-1l1,0l0,1" id="svg_501"/>
  </g>
  <g id="svg_502">
   <path fill="#263238" fill-rule="evenodd" d="m184.5,48l-5,1l-0.5,0l0.5,-1l1.25,-0.25l0.25,-3.75l1,0.5l0,1l1.5,1.5l1.5,0l-0.5,1" id="svg_503"/>
  </g>
  <g id="svg_504">
   <path fill="#263238" fill-rule="evenodd" d="m183,44l-1,0l0,-1l1,0l0,1" id="svg_505"/>
  </g>
  <g id="svg_506">
   <path fill="#263238" fill-rule="evenodd" d="m185,43l-1,-1l0,-1l1,0.5l0,1.5" id="svg_507"/>
  </g>
  <g id="svg_508">
   <path fill="#263238" fill-rule="evenodd" d="m70,38l-1,0l0,-1l1,0l0,1" id="svg_509"/>
  </g>
  <g id="svg_510">
   <path fill="#263238" fill-rule="evenodd" d="m70,28l0,-1l1,0l0,1l-1,0" id="svg_511"/>
  </g>
  <g id="svg_512">
   <path fill="#263238" fill-rule="evenodd" d="m79,19l-1,0l0,-1l1,0l0,1" id="svg_513"/>
  </g>
  <g id="svg_514">
   <path fill="#263238" fill-rule="evenodd" d="m84,18l-1,0l0,-1l1,0l0,1" id="svg_515"/>
  </g>
  <g id="svg_516">
   <path fill="#263238" fill-rule="evenodd" d="m23,56l1,0.5l-1,0.5l0,-1" id="svg_517"/>
  </g>
  <g id="svg_518">
   <path fill="#263238" fill-rule="evenodd" d="m22,57l-0.5,0l-0.5,-0.5l1,-0.5l0,1" id="svg_519"/>
  </g>
  <g id="svg_520">
   <path fill="#263238" fill-rule="evenodd" d="m22,56l0.25,-1.75l1.25,-0.25l0.5,0.5l-1,1.5l-1,0" id="svg_521"/>
  </g>
  <g id="svg_522">
   <path fill="#263238" fill-rule="evenodd" d="m27.5,56l-1.25,-0.25l0,-2.5l1.25,-0.25l0.5,0.5l-1,1l1,1l-0.5,0.5" id="svg_523"/>
  </g>
  <g id="svg_524">
   <path fill="#263238" fill-rule="evenodd" d="m25,54l-1,0l0,-1l1,0l0,1" id="svg_525"/>
  </g>
  <g id="svg_526">
   <path fill="#263238" fill-rule="evenodd" d="m34,53l0,-1l1,0l0,1l-1,0" id="svg_527"/>
  </g>
  <g id="svg_528">
   <path fill="#263238" fill-rule="evenodd" d="m29,52l-1,0l0,-1l1,0l0,1" id="svg_529"/>
  </g>
  <g id="svg_530">
   <path fill="#263238" fill-rule="evenodd" d="m26.5,52l-0.25,-1.25l1.25,-0.75l0.5,0.5l-1.5,1.5" id="svg_531"/>
  </g>
  <g id="svg_532">
   <path fill="#263238" fill-rule="evenodd" d="m27,48l-1,0l0,-1l1,0l0,1" id="svg_533"/>
  </g>
  <g id="svg_534">
   <path fill="#263238" fill-rule="evenodd" d="m35,52l0,-0.5l-0.5,-0.5l-0.5,0l-0.25,-1.75l-2.5,0l-0.25,0.75l-0.5,0l-1.5,-1.5l0.5,-0.5l1,0l2,-2l1,1l1.25,0.25l1.25,1.75l0,0.5l0.5,0.5l1.5,0l-1.75,1.25l-0.25,0.75l-1,0" id="svg_535"/>
  </g>
  <g id="svg_536">
   <path fill="#263238" fill-rule="evenodd" d="m28,47l-1,0l0,-1l1,0l0,1" id="svg_537"/>
  </g>
  <g id="svg_538">
   <path fill="#263238" fill-rule="evenodd" d="m36,46l-1,0l0,-1l1,0l0,1" id="svg_539"/>
  </g>
  <g id="svg_540">
   <path fill="#263238" fill-rule="evenodd" d="m34,46l-1,0l0,-1l1,0l0,1" id="svg_541"/>
  </g>
  <g id="svg_542">
   <path fill="#263238" fill-rule="evenodd" d="m31.5,45l-1.5,0l0.5,-1l1.5,0l-0.5,1" id="svg_543"/>
  </g>
  <g id="svg_544">
   <path fill="#263238" fill-rule="evenodd" d="m33.5,44l-1.5,0l0.5,-1l1.5,0l-0.5,1" id="svg_545"/>
  </g>
  <g id="svg_546">
   <path fill="#263238" fill-rule="evenodd" d="m29,45l-1,-1l0,-1l1,0.5l0,1.5" id="svg_547"/>
  </g>
  <g id="svg_548">
   <path fill="#263238" fill-rule="evenodd" d="m35,43l-1,0l0,-1l1,0l0,1" id="svg_549"/>
  </g>
  <g id="svg_550">
   <path fill="#263238" fill-rule="evenodd" d="m27,43l-1,0l0,-1l1,0l0,1" id="svg_551"/>
  </g>
  <g id="svg_552">
   <path fill="#263238" fill-rule="evenodd" d="m39,43l0.25,-0.75l1.25,-0.25l1,-1l0.5,0.5l0,4.5l-1,-0.5l-1,-1.5l0,-0.5l-0.5,-0.5l-0.5,0" id="svg_553"/>
  </g>
  <g id="svg_554">
   <path fill="#263238" fill-rule="evenodd" d="m44,41l-1,0l0,-1l1,0l0,1" id="svg_555"/>
  </g>
  <g id="svg_556">
   <path fill="#263238" fill-rule="evenodd" d="m41,41l-1,0l0,-1l1,0l0,1" id="svg_557"/>
  </g>
  <g id="svg_558">
   <path fill="#263238" fill-rule="evenodd" d="m36,40l-0.5,0l-0.5,-0.5l1,-0.5l0,1" id="svg_559"/>
  </g>
  <g id="svg_560">
   <path fill="#263238" fill-rule="evenodd" d="m33.5,42l-1.5,-1.5l1.5,-1.5l1.5,1.5l-1.5,1.5" id="svg_561"/>
  </g>
  <g id="svg_562">
   <path fill="#263238" fill-rule="evenodd" d="m28.5,40l-1.5,0l0.5,-1l1.5,0l-0.5,1" id="svg_563"/>
  </g>
  <g id="svg_564">
   <path fill="#263238" fill-rule="evenodd" d="m42,39l-1,0l0,-1l1,0l0,1" id="svg_565"/>
  </g>
  <g id="svg_566">
   <path fill="#263238" fill-rule="evenodd" d="m36,39l0,-0.5l0.5,-0.5l0.5,1l-1,0" id="svg_567"/>
  </g>
  <g id="svg_568">
   <path fill="#263238" fill-rule="evenodd" d="m31,39l-1,0l0,-1l1,0l0,1" id="svg_569"/>
  </g>
  <g id="svg_570">
   <path fill="#263238" fill-rule="evenodd" d="m37,39l2.5,-2l1,0l0.5,0.5l-2,2l0,1l-1.5,1.5l-1.25,-0.25l-0.25,-1.75l0.5,0l0.5,-0.5l0,-0.5" id="svg_571"/>
  </g>
  <g id="svg_572">
   <path fill="#263238" fill-rule="evenodd" d="m36,38l-1,0l0,-1l1,0l0,1" id="svg_573"/>
  </g>
  <g id="svg_574">
   <path fill="#263238" fill-rule="evenodd" d="m42,37l-1,0l0,-1l1,0l0,1" id="svg_575"/>
  </g>
  <g id="svg_576">
   <path fill="#263238" fill-rule="evenodd" d="m46,36l-1,0l0,-1l1,0l0,1" id="svg_577"/>
  </g>
  <g id="svg_578">
   <path fill="#263238" fill-rule="evenodd" d="m40.5,36l-1.5,0l0.5,-1l1.5,0l-0.5,1" id="svg_579"/>
  </g>
  <g id="svg_580">
   <path fill="#263238" fill-rule="evenodd" d="m35.5,36l-2.5,0l0.5,-1l2.5,0l-0.5,1" id="svg_581"/>
  </g>
  <g id="svg_582">
   <path fill="#263238" fill-rule="evenodd" d="m55,42.04082l0,-1l-1,0l0,1l1,0m-4,1l0,-1l-1,0l0,1l1,0m5,2l0,-1l-1,0l0,1l1,0m-7,1l0,-1l-1,0l0,1l1,0m2,0l0,-1l-1,0l0,1l1,0m1.5,2l0.5,-1l-1.5,0l-0.5,1l1.5,0m-2.5,1l0,-1l-1,0l0,1l1,0m-8,3l0,-1.5l-1,-0.5l0,1l1,1m9,-1l0,-1l-1,0l0,1l1,0m-1.5,1l0.5,-1l-2.5,0l-0.5,1l2.5,0m-7,2l1.5,-1.5l-0.5,-0.5l-1.25,0.75l0.25,1.25m-1.5,1l0,-1l-1,0l0,1l1,0m3,0l0,-1l-1,0l0,1l1,0m-9,0l0.5,0l0.5,-0.5l0,-0.5l3.75,-0.25l0.25,-3.25l-1,-0.5l0,1.5l-1,0.5l0,-0.5l-0.5,-0.5l-1.5,0l0.25,-0.75l1.25,-0.25l1.5,-1.5l-0.25,-1.25l-1.25,-0.25l-0.5,-0.5l2,-1.5l0,0.5l0.5,0.5l0.5,0l0.25,2.75l2.25,0.25l1.5,-1.5l0,-1l1.5,-1.5l1,1l1.5,-1.5l0,-1l2.5,-2.5l8.5,-6.5l1.5,-0.5l1.5,-1.5l0,-1l1.5,-1.5l1,1l0.5,-0.5l0.25,-1.25l1.25,-0.25l1.5,-1.5l0.25,-1.25l4.5,-1.5l0.5,-1.5l1.75,-0.625l3.5,-0.625l2,-2l3,1l2,-2l1,1l1,-1l1,1l1,0l1.5,1.5l0.25,1.25l1.25,0.25l0.5,0.5l-1,1l0,2l1,1l-1,1l-0.125,4.25l-1.375,0.25l-0.5,0l0.5,1l1,0l0.5,0.5l-1,1l0,1l-0.5,0.5l-1,-1l-0.5,0.5l-0.25,3.25l-1.25,0.25l-0.5,0l0.5,1l1,0l0.5,0.5l-3,3l0,2l-2,2l-0.625,3.5l-0.375,1.5l-2,2l1,1l-0.5,0.5l-1,0l-1,1l-0.5,-0.5l0,-2.5l-1,0.5l0,1l-1,1l2,2l-0.25,1.25l-1.25,0.25l-1.5,1.5l-1,4l-3,3l-2.25,4.25l-1.5,0.5l-2.5,4.5l-1.25,0.25l-0.5,0.5l1,1l-0.5,0.5l-1,0l-0.5,0.5l1,1l-0.5,0.5l-1.5,0l0.5,1l1.25,0.25l0.25,1.25l-0.5,0.5l-1,-1l-0.5,0.5l0,2l-4.5,4.5l-1,0l-1,1l-1.5,-1.5l0,-2.5l-1,0.5l-0.25,2.25l-1.25,0.25l-2.5,-2.5l0.5,-0.5l1.5,0l-0.5,-1l-1.25,-0.25l0.125,-1.75l0.625,-2.5l3,-3l0.25,-1.25l1.25,-0.25l0.5,-0.5l-1,-1l2,-2l0,-1l2,-2l-1,-1l0.5,-0.5l3,1l0.5,-0.5l-1,-1l0,-2l2,-2l0,-1l2.5,-2.5l1,0l0.5,-0.5l-1,-1l1,-1l0.25,-1.25l1.25,-0.25l1.5,-1.5l0,-1l3,-3l0.5,-2.5l1.125,-3l0.375,-1.5l0.5,-0.5l1,1l0.5,-0.5l0,-2l1,-1l-1,-1l0.5,-0.5l1.25,-0.25l0.25,-1.25l-1,-1l2,-2l0,-2l3,-3l-1,-1l-0.25,-1.25l-3.5,0l-0.25,2.25l-1.5,1.5l-1,-1l-1,1l-1,0l-1.5,1.5l0,1l-3.5,3.5l-2,0l-0.5,0.5l1,1l-1.5,1.5l-4.25,2.25l-0.5,1.5l-5.25,3.25l-4.5,4.5l0,1l-1.5,1.5l-3.25,1.25l-0.25,1.25l-0.5,0.5l-1,-1l-0.5,0.5l-0.25,3.25l-1.25,0.25l-1,-1l-2,2l-1,-1l-2,1l-2.25,0.75l-0.5,-1.5l-1.5,-0.5l-1.25,-3.25l1,-1l-0.5,-0.5l-1.25,-0.25l0.25,-1.75l1,-2l0.5,-2l1.5,0l1,1l0.5,0l0,1l-1,0.5l0.5,0.5l0.5,0l0.5,1l0.5,-1m5,2l0,-1.5l-1,-0.5l0,1l1,1m9,-1l0,-1l-1,0l0,1l1,0m-17,1l0,-1l-1,0l0,1l1,0m6,0l0,-1l-1,0l0,1l1,0m7,0l0,-1l-1,0l0,1l1,0m-11,1l0,-1l-1,0l0,1l1,0m8,0l0,-1l-1,0l0,1l1,0m2,0l0,-1l-1,0l0,1l1,0m-11,1l0,-1l-1,0l0,1l1,0m5,1l0,-1.5l-1,-0.5l0,1l1,1m50.5,-37l0.5,-1l-1.5,0l-1,-1l-0.5,0.5l0.25,1.25l2.25,0.25m-7.5,0l0,-1l-1,0l0,1l1,0m3,0l0,-1l-1,0l0,1l1,0m-6.5,4l0.5,-0.5l-1,-1l0,-2l-1,-0.5l0.25,3.75l1.25,0.25m1,-1l1.5,-1.5l-0.5,-0.5l-1.25,0.75l0.25,1.25m3.5,-1l0,-1l-1,0l0,1l1,0m-8,1l0,-1l-1,0l0,1l1,0m11,0l0,-1l-1,0l0,1l1,0m2,0l0,-1l-1,0l0,1l1,0m3,1l0,-1l-1,0l0,1l1,0m-20,1l0,-1l-1,0l0,1l1,0m6,0l0,-1l-1,0l0,1l1,0m7,3l0,-2.5l1,-1l-0.5,-0.5l-1,0l-1.5,1.5l1,1.5l1,1m-10,-2l0,-1l-1,0l0,1l1,0m12,0l0,-1l-1,0l0,1l1,0m1,1l0,-1l-1,0l0,1l1,0m-15,0l1,-0.5l-1,-0.5l-0.5,-1l-0.5,0.5l0,0.5l-1,0.5l0.5,0.5l0.5,0l0.5,1l0.5,-1m3,1l0,-1l-1,0l0,1l1,0m15.5,0l0.5,-1l-2.5,0l-0.5,1l2.5,0m-20.5,1l0,-1l-1,0l0,1l1,0m3,0l0,-1l-1,0l0,1l1,0m14,0l0,-1l-1,0l0,1l1,0m-19.5,1l0.5,-1l-1.5,0l-0.5,1l1.5,0m18.5,1l0,-1.5l-1,-0.5l0,1l1,1m-22,0l0,-1l-1,0l0,1l1,0m24,0l0,-1l-1,0l0,1l1,0m1,1l0,-1l-1,0l0,1l1,0m-25,1l0,-1l-1,0l0,1l1,0m19,0l0,-1l-1,0l0,1l1,0m-21,1l0,-1l-1,0l0,1l1,0m8,0l0,-1l-1,0l0,1l1,0m18,0l0,-1l-1,0l0,1l1,0m-3,1l0,-1l-1,0l0,1l1,0m-25,1l0,-1l-1,0l0,1l1,0m29,0l0,-1l-1,0l0,1l1,0m-24,1l0,-1l-1,0l0,1l1,0m18,0l0,-1l-1,0l0,1l1,0m5,0l0,-1l-1,0l0,1l1,0m-23,2l0,-1l-1,0l0,1l1,0m18.5,1l0.5,-1l-1.5,0l-0.5,1l1.5,0m-24.5,1l0,-1l-1,0l0,1l1,0m3,0l0,-1l-1,0l0,1l1,0m-1,1l0,-1l-1,0l0,1l1,0m20.75,1.75l0.25,-2.25l-1,-0.5l0,1.5l-1,1l0.5,0.5l1.25,-0.25m4.25,-1.75l0,-1l-1,0l0,1l1,0m-1,1l0,-1l-1,0l0,1l1,0m-2,3l0,-1.5l-1,-0.5l0,1l1,1m-3,0l0,-1l-1,0l0,1l1,0m-2,1l0,-1l-1,0l0,1l1,0m4,1l0,-1.5l-1,-0.5l0,1l1,1m-3,0l0,-1l-1,0l0,1l1,0m-1,1l0,-1l-1,0l0,1l1,0m3,1l0,-1l-1,0l0,1l1,0m0,2l0,-1l-1,0l0,1l1,0m-6,1l0,-1l-1,0l0,1l1,0m-3,2l0,-1l-1,0l0,1l1,0m2,0l0,-1l-1,0l0,1l1,0m-39,4l0,-1l-1,0l0,1l1,0m4,0l0,-1l-1,0l0,1l1,0m18.5,18l0.5,-1l-1.5,0l-0.5,1l1.5,0m-0.5,3l0,-1l-1,0l0,1l1,0m-1,1l0,-1l-1,0l0,1l1,0m-2,2l0,-1l-1,0l0,1l1,0m3,5l0,-1l-1,0l0,1l1,0m19,-28l0,-1l-1,0l0,1l1,0m-6,3l-0.25,-2.75l-1.25,-0.25l-0.5,0.5l1,1.5l1,1m3.5,-1l1.5,-1.5l-0.5,-0.5l-1.25,0.75l0.25,1.25m-6.75,4.75l-0.25,-1.75l-0.75,-1.75l-1.25,-0.25l-0.5,0.5l1,1l0.25,2.25l1.5,0m6.25,-2.75l0,-1l-1,0l0,1l1,0m-4.5,1l0.5,-1l-1.5,0l-0.5,1l1.5,0m3.5,0l0,-1l-1,0l0,1l1,0m-1,1l0,-1l-1,0l0,1l1,0m-0.5,2l0.5,-1l-1.5,0l-0.5,1l1.5,0m-6.5,1l0,-1l-1,0l0,1l1,0m3.5,1l0.5,-0.5l-1.5,-1.5l-1,0l-0.5,0.5l1.5,1.5l1,0m1.5,1l0,-1l-1,0l0,1l1,0m-5,2l0,-1l-1,0l0,1l1,0m2,0l0,-1l-1,0l0,1l1,0m-6,1l0,-1l-1,0l0,1l1,0m-1,5l0,-1.5l-1,-0.5l0,1l1,1m3,0l0,-1l-1,0l0,1l1,0m-3,2l0,-1l-1,0l0,1l1,0m2.5,4l0.5,-1l-1.5,0l-0.5,1l1.5,0" id="svg_583"/>
  </g>
  <g id="svg_584">
   <path fill="#263238" fill-rule="evenodd" d="m44.5,35l-1.5,0l0.5,-1l1.5,0l-0.5,1" id="svg_585"/>
  </g>
  <g id="svg_586">
   <path fill="#263238" fill-rule="evenodd" d="m38,35l-1,0l0,-1l1,0l0,1" id="svg_587"/>
  </g>
  <g id="svg_588">
   <path fill="#263238" fill-rule="evenodd" d="m34,34l-1,0l0,-1l1,0l0,1" id="svg_589"/>
  </g>
  <g id="svg_590">
   <path fill="#263238" fill-rule="evenodd" d="m47,34l-1,-1l0,-1l1,0.5l0,1.5" id="svg_591"/>
  </g>
  <g id="svg_592">
   <path fill="#263238" fill-rule="evenodd" d="m44,33l-1,0l0,-1l1,0l0,1" id="svg_593"/>
  </g>
  <g id="svg_594">
   <path fill="#263238" fill-rule="evenodd" d="m41,34l-1,-1l0,-1l1,0.5l0,1.5" id="svg_595"/>
  </g>
  <g id="svg_596">
   <path fill="#263238" fill-rule="evenodd" d="m38,32l-1,0l0,-1l1,0l0,1" id="svg_597"/>
  </g>
  <g id="svg_598">
   <path fill="#263238" fill-rule="evenodd" d="m35,33l-1,-1l0,-1l1,0.5l0,1.5" id="svg_599"/>
  </g>
  <g id="svg_600">
   <path fill="#263238" fill-rule="evenodd" d="m37,31l-1,0l0,-1l1,0l0,1" id="svg_601"/>
  </g>
  <g id="svg_602">
   <path fill="#263238" fill-rule="evenodd" d="m45,30l-1,0l0,-1l1,0l0,1" id="svg_603"/>
  </g>
  <g id="svg_604">
   <path fill="#263238" fill-rule="evenodd" d="m49,29l-1,0l0,-1l1,0l0,1" id="svg_605"/>
  </g>
  <g id="svg_606">
   <path fill="#263238" fill-rule="evenodd" d="m46,29l-1,0l0,-1l1,0l0,1" id="svg_607"/>
  </g>
  <g id="svg_608">
   <path fill="#263238" fill-rule="evenodd" d="m40.5,29l-1.5,0l0.5,-1l1.5,0l-0.5,1" id="svg_609"/>
  </g>
  <g id="svg_610">
   <path fill="#263238" fill-rule="evenodd" d="m47,28l-1,0l0,-1l1,0l0,1" id="svg_611"/>
  </g>
  <g id="svg_612">
   <path fill="#263238" fill-rule="evenodd" d="m36,27l-1,0l0,-1l1,0l0,1" id="svg_613"/>
  </g>
  <g id="svg_614">
   <path fill="#263238" fill-rule="evenodd" d="m43.5,26l-1.5,0l0.5,-1l1.5,0l-0.5,1" id="svg_615"/>
  </g>
  <g id="svg_616">
   <path fill="#263238" fill-rule="evenodd" d="m42,21l-1,0l0,-1l1,0l0,1" id="svg_617"/>
  </g>
  <g id="svg_618">
   <path fill="#263238" fill-rule="evenodd" d="m49,19l-1,0l0,-1l1,0l0,1" id="svg_619"/>
  </g>
 </g></svg>
